<svg xmlns="http://www.w3.org/2000/svg" version="1.1" xmlns:xlink="http://www.w3.org/1999/xlink" xmlns:svgjs="http://svgjs.dev/svgjs" width="1500" height="935" viewBox="0 0 1500 935"><g transform="matrix(1,0,0,1,-0.9090909090909918,0.3785425101214628)"><svg viewBox="0 0 396 247" data-background-color="#ffffff" preserveAspectRatio="xMidYMid meet" height="935" width="1500" xmlns="http://www.w3.org/2000/svg" xmlns:xlink="http://www.w3.org/1999/xlink"><g id="tight-bounds" transform="matrix(1,0,0,1,0.2400000000000091,-0.09999999999999432)"><svg viewBox="0 0 395.52 247.2" height="247.2" width="395.52"><g><svg></svg></g><g><svg viewBox="0 0 395.52 247.2" height="247.2" width="395.52"><g><g><path d="M20.436 92.08c8.766-8.551 19.558-12.826 32.376-12.826 12.818 0 23.61 4.275 32.376 12.826 5.921 5.787 9.842 12.525 11.764 20.214l-20.621 0c-1.226-2.886-2.946-5.547-5.16-7.983-4.962-5.458-11.057-8.187-18.284-8.187-7.244 0-13.347 2.729-18.309 8.187-2.214 2.435-3.934 5.096-5.16 7.983l-20.746 0c1.922-7.689 5.843-14.427 11.764-20.214zM111.486 104.981c0-8.22 2.961-14.563 8.882-19.029 5.905-4.466 13.281-6.698 22.13-6.698 5.789 0 11.578 0.992 17.366 2.977 5.789 1.985 10.833 4.796 15.134 8.435l-9.8 14.141c-7.525-5.706-15.299-8.559-23.321-8.559-3.225 0-5.764 0.761-7.616 2.282-1.869 1.538-2.803 3.564-2.803 6.079 0 2.531 1.141 4.54 3.423 6.028 0.791 0.52 1.947 1.072 3.467 1.657l-26.125 0c-0.491-2.208-0.736-4.645-0.737-7.313zM247.316 160.752h-11.536l-12.72-25.846 37.044 0zM193.108 81.238h26.174l14.557 31.056-40.731 0zM264.063 81.238h26.049l0 31.056h-40.688zM310.208 81.238h19.351v31.056l-19.351 0zM365.16 81.238h19.351v31.056h-19.351z" fill="#755bb4" fill-rule="nonzero" stroke="none" stroke-width="1" stroke-linecap="butt" stroke-linejoin="miter" stroke-miterlimit="10" stroke-dasharray="" stroke-dashoffset="0" font-family="none" font-weight="none" font-size="none" text-anchor="none" style="mix-blend-mode: normal" data-fill-palette-color="tertiary"></path></g></g><g transform="matrix(1,0,0,1,0,114.84793265659816)"><svg viewBox="0 0 395.52 17.504134686803663" height="17.504134686803663" width="395.52"><g><svg viewBox="0 0 395.52 17.504134686803663" height="17.504134686803663" width="395.52"><g><svg viewBox="0 0 395.52 17.504134686803663" height="17.504134686803663" width="395.52"><g><svg viewBox="0 0 395.52 17.504134686803663" height="17.504134686803663" width="395.52"><g id="textblocktransform"><svg viewBox="0 0 395.52 17.504134686803663" height="17.504134686803663" width="395.52" id="textblock"><g><svg viewBox="0 0 395.52 17.504134686803663" height="17.504134686803663" width="395.52"><g transform="matrix(1,0,0,1,0,0)"><svg width="395.52" viewBox="0 -35.75 807.74 35.75" height="17.504134686803663" data-palette-color="#755bb4"><path d="M30.15-2.15L41.3-2.15 41.3 0 0 0 0-2.15 11.15-2.15Q7.05-4.5 4.67-8.6 2.3-12.7 2.3-17.7L2.3-17.7Q2.3-25.4 7.6-30.58 12.9-35.75 20.65-35.75 28.4-35.75 33.7-30.58 39-25.4 39-17.7L39-17.7Q39-12.7 36.6-8.6 34.2-4.5 30.15-2.15L30.15-2.15ZM31.05-17.68Q31.05-22.35 28.05-25.65 25.05-28.95 20.68-28.95 16.3-28.95 13.3-25.65 10.3-22.35 10.3-17.68 10.3-13 13.3-9.73 16.3-6.45 20.68-6.45 25.05-6.45 28.05-9.73 31.05-13 31.05-17.68ZM53.4-2.15L75.15-2.15 75.15 0 40.75 0 40.75-2.15 45.6-2.15 45.6-34.95 57.95-34.95Q66-34.95 69.67-31.83 73.35-28.7 73.35-22.23 73.35-15.75 69.57-12.75 65.8-9.75 58.05-9.75L58.05-9.75 53.4-9.75 53.4-2.15ZM58.65-16.5Q62.55-16.5 63.95-18.07 65.35-19.65 65.35-22.68 65.35-25.7 63.52-26.98 61.7-28.25 57.85-28.25L57.85-28.25 53.4-28.25 53.4-16.5 58.65-16.5ZM74.6-2.15L79.45-2.15 79.45-34.95 104.65-34.95 104.65-28 87.25-28 87.25-20.8 102.9-20.8 102.9-14.15 87.25-14.15 87.25-6.9 105.2-6.9 105.2-2.15 110.05-2.15 110.05 0 74.6 0 74.6-2.15ZM107.29-2.15L112.14-2.15 112.14-34.95 119.44-34.95 136.59-12.45 136.59-34.95 144.39-34.95 144.39-2.15 149.24-2.15 149.24 0 136.59 0 119.94-21.9 119.94 0 107.29 0 107.29-2.15ZM148.69-2.15L161.89-2.15 161.89 0 148.69 0 148.69-2.15ZM187.39-2.15L193.79-2.15 193.79 0 161.89 0 161.89-2.15 168.69-2.15Q165.94-3.55 163.69-5.75L163.69-5.75 168.34-11.45Q173.99-6.5 178.79-6.5L178.79-6.5Q180.94-6.5 182.16-7.43 183.39-8.35 183.39-9.93 183.39-11.5 182.09-12.43 180.79-13.35 176.94-14.3L176.94-14.3Q170.84-15.75 168.01-18.07 165.19-20.4 165.19-25.38 165.19-30.35 168.76-33.05 172.34-35.75 177.69-35.75L177.69-35.75Q181.19-35.75 184.69-34.55 188.19-33.35 190.79-31.15L190.79-31.15 186.84-25.45Q182.29-28.9 177.44-28.9L177.44-28.9Q175.49-28.9 174.36-27.98 173.24-27.05 173.24-25.53 173.24-24 174.61-23.1 175.99-22.2 180.96-20.98 185.94-19.75 188.69-17.3 191.44-14.85 191.44-10.5L191.44-10.5Q191.44-5.1 187.39-2.15L187.39-2.15ZM223.94-2.15L235.09-2.15 235.09 0 193.79 0 193.79-2.15 204.94-2.15Q200.84-4.5 198.46-8.6 196.09-12.7 196.09-17.7L196.09-17.7Q196.09-25.4 201.39-30.58 206.69-35.75 214.44-35.75 222.19-35.75 227.49-30.58 232.79-25.4 232.79-17.7L232.79-17.7Q232.79-12.7 230.39-8.6 227.99-4.5 223.94-2.15L223.94-2.15ZM224.84-17.68Q224.84-22.35 221.84-25.65 218.84-28.95 214.46-28.95 210.09-28.95 207.09-25.65 204.09-22.35 204.09-17.68 204.09-13 207.09-9.73 210.09-6.45 214.46-6.45 218.84-6.45 221.84-9.73 224.84-13 224.84-17.68ZM262.73-2.15L272.63-2.15 272.63 0 235.08 0 235.08-2.15 245.03-2.15Q238.88-6.25 238.88-15.4L238.88-15.4 238.88-34.95 246.68-34.95 246.68-15.65Q246.68-11.45 248.63-9.03 250.58-6.6 253.88-6.6 257.18-6.6 259.11-9.03 261.03-11.45 261.03-15.65L261.03-15.65 261.03-34.95 268.83-34.95 268.83-15.4Q268.83-6.25 262.73-2.15L262.73-2.15ZM272.08-2.15L276.93-2.15 276.93-34.95 290.18-34.95Q298.33-34.95 301.81-32.2 305.28-29.45 305.28-23.35L305.28-23.35Q305.28-14.95 298.63-12.5L298.63-12.5 305.93-2.15 310.63-2.15 310.63 0 297.88 0 290.13-11.15 284.73-11.15 284.73 0 272.08 0 272.08-2.15ZM290.43-17.9Q294.43-17.9 295.88-19.2 297.33-20.5 297.33-23.33 297.33-26.15 295.83-27.2 294.33-28.25 290.58-28.25L290.58-28.25 284.73-28.25 284.73-17.9 290.43-17.9ZM338.78-2.15L345.78-2.15 345.78 0 308.98 0 308.98-2.15 319.73-2.15Q315.73-4.5 313.45-8.53 311.18-12.55 311.18-17.65L311.18-17.65Q311.18-25.35 316.5-30.55 321.83-35.75 329.53-35.75L329.53-35.75Q338.13-35.75 343.93-29.2L343.93-29.2 339.08-23.7Q335.38-28.3 329.88-28.3L329.88-28.3Q325.48-28.3 322.35-25.43 319.23-22.55 319.23-17.68 319.23-12.8 322.18-9.85 325.13-6.9 329.33-6.9L329.33-6.9Q335.08-6.9 338.73-11.45L338.73-11.45 343.73-6.3Q341.53-3.75 338.78-2.15L338.78-2.15ZM345.23-2.15L350.08-2.15 350.08-34.95 375.28-34.95 375.28-28 357.88-28 357.88-20.8 373.53-20.8 373.53-14.15 357.88-14.15 357.88-6.9 375.83-6.9 375.83-2.15 380.68-2.15 380.68 0 345.23 0 345.23-2.15ZM378.47-2.15L391.67-2.15 391.67 0 378.47 0 378.47-2.15ZM427.27 0L427.27-22 417.82-2.9 413.17-2.9 403.77-22 403.77 0 391.12 0 391.12-2.15 395.97-2.15 395.97-34.95 406.52-34.95 415.52-15.75 424.57-34.95 435.07-34.95 435.07-2.15 439.92-2.15 439.92 0 427.27 0ZM451.47-2.15L455.77-2.15 455.77 0 439.37 0 439.37-2.15 443.67-2.15 443.67-34.95 451.47-34.95 451.47-2.15ZM455.22-2.15L460.07-2.15 460.07-34.95 467.37-34.95 484.52-12.45 484.52-34.95 492.32-34.95 492.32-2.15 497.17-2.15 497.17 0 484.52 0 467.87-21.9 467.87 0 455.22 0 455.22-2.15ZM496.06-2.15L500.91-2.15 500.91-34.95 526.11-34.95 526.11-28 508.71-28 508.71-20.8 524.36-20.8 524.36-14.15 508.71-14.15 508.71-6.9 526.66-6.9 526.66-2.15 531.51-2.15 531.51 0 496.06 0 496.06-2.15ZM528.76-2.15L533.61-2.15 533.61-34.95 546.86-34.95Q555.01-34.95 558.49-32.2 561.96-29.45 561.96-23.35L561.96-23.35Q561.96-14.95 555.31-12.5L555.31-12.5 562.61-2.15 567.31-2.15 567.31 0 554.56 0 546.81-11.15 541.41-11.15 541.41 0 528.76 0 528.76-2.15ZM547.11-17.9Q551.11-17.9 552.56-19.2 554.01-20.5 554.01-23.33 554.01-26.15 552.51-27.2 551.01-28.25 547.26-28.25L547.26-28.25 541.41-28.25 541.41-17.9 547.11-17.9ZM591.16-2.15L597.56-2.15 597.56 0 565.66 0 565.66-2.15 572.46-2.15Q569.71-3.55 567.46-5.75L567.46-5.75 572.11-11.45Q577.76-6.5 582.56-6.5L582.56-6.5Q584.71-6.5 585.93-7.43 587.16-8.35 587.16-9.93 587.16-11.5 585.86-12.43 584.56-13.35 580.71-14.3L580.71-14.3Q574.61-15.75 571.78-18.07 568.96-20.4 568.96-25.38 568.96-30.35 572.53-33.05 576.11-35.75 581.46-35.75L581.46-35.75Q584.96-35.75 588.46-34.55 591.96-33.35 594.56-31.15L594.56-31.15 590.61-25.45Q586.06-28.9 581.21-28.9L581.21-28.9Q579.26-28.9 578.13-27.98 577.01-27.05 577.01-25.53 577.01-24 578.38-23.1 579.76-22.2 584.73-20.98 589.71-19.75 592.46-17.3 595.21-14.85 595.21-10.5L595.21-10.5Q595.21-5.1 591.16-2.15L591.16-2.15ZM597.55-2.15L610.75-2.15 610.75 0 597.55 0 597.55-2.15ZM638.4-2.15L648.3-2.15 648.3 0 610.75 0 610.75-2.15 620.7-2.15Q614.55-6.25 614.55-15.4L614.55-15.4 614.55-34.95 622.35-34.95 622.35-15.65Q622.35-11.45 624.3-9.03 626.25-6.6 629.55-6.6 632.85-6.6 634.78-9.03 636.7-11.45 636.7-15.65L636.7-15.65 636.7-34.95 644.5-34.95 644.5-15.4Q644.5-6.25 638.4-2.15L638.4-2.15ZM647.75-2.15L652.6-2.15 652.6-34.95 659.9-34.95 677.05-12.45 677.05-34.95 684.85-34.95 684.85-2.15 689.7-2.15 689.7 0 677.05 0 660.4-21.9 660.4 0 647.75 0 647.75-2.15ZM701.25-2.15L705.55-2.15 705.55 0 689.15 0 689.15-2.15 693.45-2.15 693.45-34.95 701.25-34.95 701.25-2.15ZM724.64-2.15L735.94-2.15 735.94 0 705.54 0 705.54-2.15 716.84-2.15 716.84-28.2 706.94-28.2 706.94-34.95 734.54-34.95 734.54-28.2 724.64-28.2 724.64-2.15ZM735.39-2.15L740.24-2.15 740.24-34.95 765.44-34.95 765.44-28 748.04-28 748.04-20.8 763.69-20.8 763.69-14.15 748.04-14.15 748.04-6.9 765.99-6.9 765.99-2.15 770.84-2.15 770.84 0 735.39 0 735.39-2.15ZM795.94-2.15L807.74-2.15 807.74 0 768.09 0 768.09-2.15 772.94-2.15 772.94-34.95 785.29-34.95Q794.64-34.95 799.64-30.38 804.64-25.8 804.64-17.5L804.64-17.5Q804.64-6.3 795.94-2.15L795.94-2.15ZM785.69-6.9Q791.04-6.9 793.91-9.6 796.79-12.3 796.79-17.45 796.79-22.6 793.91-25.38 791.04-28.15 785.09-28.15L785.09-28.15 780.74-28.15 780.74-6.9 785.69-6.9Z" opacity="1" transform="matrix(1,0,0,1,0,0)" fill="#755bb4" class="wordmark-text-0" data-fill-palette-color="primary" id="text-0"></path></svg></g></svg></g></svg></g></svg></g><g></g></svg></g></svg></g></svg></g></svg></g><defs></defs></svg><rect width="395.52" height="247.2" fill="none" stroke="none" visibility="hidden"></rect></g></svg></g></svg>